<?xml version="1.0" encoding="utf-8"?>
<!-- Generator: Adobe Illustrator 23.0.2, SVG Export Plug-In . SVG Version: 6.00 Build 0)  -->
<svg version="1.1" id="Layer_1" xmlns="http://www.w3.org/2000/svg" xmlns:xlink="http://www.w3.org/1999/xlink" x="0px" y="0px"
	 viewBox="0 0 2048 2048" style="enable-background:new 0 0 2048 2048;" xml:space="preserve">
<style type="text/css">
	.st0{fill:#FFE783;}
	.st1{fill:#BFE69F;}
	.st2{fill:#FAAFAF;}
	.st3{fill:#E1EFFF;}
	.st4{fill:#212121;}
</style>
<g>
	<g>
		<g>
			<g>
				<g id="XMLID_1_">
					<path class="st0" d="M1768,446.39v151.52H280V446.39c0-33.14,26.86-60,60-60h1368C1741.14,386.39,1768,413.25,1768,446.39z"/>
					<rect x="797.49" y="1415.2" class="st1" width="453.02" height="114.18"/>
					<rect x="406.35" y="730.14" class="st2" width="1235.3" height="344.84"/>
					<path class="st3" d="M1768,597.91v1003.7c0,33.14-26.86,60-60,60H340c-33.14,0-60-26.86-60-60V597.91H1768z M1641.65,1074.98
						V730.14H406.35v344.84H1641.65z M1250.51,1529.38V1415.2H797.49v114.18H1250.51z"/>
				</g>
			</g>
		</g>
	</g>
	<g>
		<g>
			<g>
				<g>
					<path class="st4" d="M1708,1685.61H340c-46.32,0-84-37.68-84-84V446.39c0-46.32,37.68-84,84-84h1368c46.32,0,84,37.68,84,84
						v1155.22C1792,1647.93,1754.32,1685.61,1708,1685.61z M340,410.39c-19.85,0-36,16.15-36,36v1155.22c0,19.85,16.15,36,36,36
						h1368c19.85,0,36-16.15,36-36V446.39c0-19.85-16.15-36-36-36H340z"/>
				</g>
				<g>
					<path class="st4" d="M1768,621.91H280c-13.25,0-24-10.75-24-24s10.75-24,24-24h1488c13.25,0,24,10.75,24,24
						S1781.25,621.91,1768,621.91z"/>
				</g>
				<g>
					<path class="st4" d="M1632.88,516.15h-597c-13.25,0-24-10.75-24-24s10.75-24,24-24h597c13.25,0,24,10.75,24,24
						S1646.14,516.15,1632.88,516.15z"/>
				</g>
				<g>
					<g>
						<circle class="st4" cx="435.35" cy="492.15" r="31.62"/>
					</g>
					<g>
						<circle class="st4" cx="567.68" cy="492.15" r="31.62"/>
					</g>
					<g>
						<circle class="st4" cx="700.01" cy="492.15" r="31.62"/>
					</g>
				</g>
			</g>
		</g>
		<g>
			<g>
				<g>
					<path class="st4" d="M1641.65,1098.98H406.35c-13.25,0-24-10.75-24-24V730.14c0-13.25,10.75-24,24-24h1235.3
						c13.25,0,24,10.75,24,24v344.85C1665.65,1088.24,1654.9,1098.98,1641.65,1098.98z M430.35,1050.98h1187.3V754.14H430.35
						V1050.98z"/>
				</g>
			</g>
			<g>
				<g>
					<g>
						<path class="st4" d="M1250.51,1553.38H797.49c-13.25,0-24-10.75-24-24V1415.2c0-13.25,10.75-24,24-24h453.03
							c13.25,0,24,10.75,24,24v114.18C1274.51,1542.64,1263.77,1553.38,1250.51,1553.38z M821.49,1505.38h405.03v-66.18H821.49
							V1505.38z"/>
					</g>
				</g>
				<g>
					<path class="st4" d="M1498.62,1220.79H549.38c-13.25,0-24-10.75-24-24s10.75-24,24-24h949.24c13.25,0,24,10.75,24,24
						S1511.87,1220.79,1498.62,1220.79z"/>
				</g>
				<g>
					<path class="st4" d="M1284.32,1330H763.68c-13.25,0-24-10.75-24-24s10.75-24,24-24h520.64c13.25,0,24,10.75,24,24
						S1297.58,1330,1284.32,1330z"/>
				</g>
			</g>
		</g>
	</g>
</g>
</svg>
