<?xml version="1.0" encoding="iso-8859-1"?>
<!-- Generator: Adobe Illustrator 23.0.5, SVG Export Plug-In . SVG Version: 6.00 Build 0)  -->
<svg version="1.1" id="&#x428;&#x430;&#x440;_1" xmlns="http://www.w3.org/2000/svg" xmlns:xlink="http://www.w3.org/1999/xlink"
	 x="0px" y="0px" viewBox="0 0 1979.783 2800" style="enable-background:new 0 0 1979.783 2800;" xml:space="preserve">
<g>
	<rect style="fill:#FFFFFF;" width="1979.783" height="2800"/>
	<g>
		<circle style="fill:#8EC9ED;" cx="987.706" cy="1161.279" r="727.308"/>
		<circle style="fill:#8EC9ED;" cx="1481.207" cy="381.133" r="90.816"/>
		<circle style="fill:#8EC9ED;" cx="1670.203" cy="583.063" r="44.811"/>
		<circle style="fill:#8EC9ED;" cx="1232.865" cy="381.133" r="31.686"/>
		
			<ellipse transform="matrix(0.1602 -0.9871 0.9871 0.1602 -1398.7928 2133.0901)" style="fill:#8EC9ED;" cx="554.177" cy="1888.587" rx="69.441" ry="69.441"/>
		<circle style="fill:#8EC9ED;" cx="294.525" cy="1807.135" r="37.431"/>
	</g>
</g>
<g>
	<g>
		<g>
			<path style="fill:#FFFFFF;" d="M1202.616,1494.409c-10.012,2.656-18.109,10.754-20.766,20.766
				c-6.049,22.793,14.268,43.108,37.06,37.06c10.012-2.657,18.107-10.754,20.763-20.766
				C1245.72,1508.676,1225.408,1488.363,1202.616,1494.409z M1210.763,1538.819c-8.545,0-15.497-6.951-15.497-15.497
				c0-8.544,6.953-15.496,15.497-15.496s15.495,6.952,15.495,15.496C1226.258,1531.868,1219.308,1538.819,1210.763,1538.819z"/>
		</g>
		<g>
			<path style="fill:#FFFFFF;" d="M1060.201,1221.563c-0.371-3.987-3.942-6.925-7.883-6.549c-3.987,0.368-6.92,3.898-6.551,7.883
				c2.824,30.52,14.06,57.638,33.396,80.601c1.433,1.704,3.484,2.58,5.548,2.58c1.649,0,3.305-0.559,4.665-1.703
				c3.063-2.578,3.454-7.151,0.876-10.214C1072.856,1273.505,1062.746,1249.079,1060.201,1221.563z"/>
		</g>
		<g>
			<path style="fill:#FFFFFF;" d="M754.357,1257.411h-23.105C737.806,1263.055,747.634,1263.118,754.357,1257.411z"/>
		</g>
		<g>
			<path style="fill:#FFFFFF;" d="M1063.246,921.376c-0.054-0.033-0.109-0.065-0.163-0.098
				c-12.704-7.694-25.27-13.686-37.346-17.805c-5.172-1.765-10.592-3.152-16.022-4.314c-6.718-1.436-13.456-2.501-19.8-3.225
				c-5.424-0.62-8.824,5.661-5.374,9.892c6.143,7.534,12.565,16.778,18.24,27.723c1.223,2.357,1.059,5.192-0.426,7.392
				c-1.485,2.2-4.056,3.414-6.698,3.159c-0.752-0.071-75.463-8.156-97.241-91.417c-12.351-47.234-45.233-68.632-71.937-76.959
				c-5.656-1.763-10.171,4.938-6.518,9.6c17.471,22.292,35.135,56.444,20.83,93.174c-1.017,2.611-3.452,4.4-6.248,4.596
				c-2.808,0.2-5.455-1.24-6.83-3.685c-0.229-0.41-23.459-41.192-66.498-66.432c-31.303-18.356-64.92-24.067-100.293-17.105
				c-5.381,1.06-6.614,8.158-2.032,11.176c27.08,17.838,60.165,54.728,51.149,126.47c-1.646,13.095-2.709,25.244-3.318,36.505
				c-2.6,47.997,3.15,79.625,8.309,97.507c3.533,12.25,6.787,18.074,6.878,18.231c1.636,2.817,1.203,6.394-1.075,8.724
				c-2.279,2.328-5.821,2.868-8.673,1.297c-1.108-0.611-18.265-10.233-34.063-28.252c-1.046-1.193-2.087-2.423-3.116-3.69
				c-3.504-4.314-10.476-2.051-10.794,3.497c-0.004,0.063-0.006,0.13-0.009,0.193c-2.459,43.455,4.739,117.49,65.136,188.052
				c0.591,0.69,1.268,1.254,1.936,1.829h23.105c0.256-0.218,0.544-0.375,0.791-0.609l3.103-2.949l6.919-6.574
				c-6.169-12.096-4.348-27.252,5.76-37.359l13.24-13.238c4.648-4.65,10.477-7.668,16.803-8.847
				c-7.982-9.901-11.403-22.715-8.224-36.002c1.904-7.96,6.394-15.076,12.181-20.865l12.122-12.122
				c7.918-7.918,18.445-12.278,29.644-12.278c2.408,0,4.766,0.297,7.094,0.693c-1.297-6.59-0.992-13.62,1.314-20.664
				c1.99-6.079,5.679-11.48,10.202-16.005l15.323-15.322c7.559-7.56,17.612-11.725,28.306-11.725c2.385,0,4.721,0.279,7.023,0.687
				c-2.201-12.444,1.44-25.731,11.034-35.325l14.806-14.807c6.931-6.931,15.926-11.762,25.69-12.631
				c12.049-1.071,23.57,3.136,31.992,11.561l7.599,7.598l58.421-55.976C1072.449,937.991,1071.474,926.373,1063.246,921.376z"/>
		</g>
		<g>
			<path style="fill:#FFFFFF;" d="M1109.569,922.498l-90.975,87.17c-0.694,0.665-0.705,1.77-0.026,2.451l5.717,5.716
				c0.669,0.669,1.755,0.669,2.424,0l15.82-15.821c11.647-11.647,26.926-19.493,43.365-20.519
				c18.903-1.18,36.877,5.641,50.13,18.896l8.767,8.765c2.364,2.364,6.199,2.358,8.556-0.014l21.593-21.737
				c2.017-2.03,5.007-2.626,7.704-1.674c42.48,14.987,90.408,4.181,122.141-27.555c24.751-24.751,36.739-59.007,33.861-92.987
				c-0.74-8.728-11.508-12.52-17.702-6.326l-65.275,65.275c-2.819,2.818-7.431,2.818-10.249,0l-72.64-72.641
				c-2.83-2.829-2.83-7.419,0-10.249l65.274-65.277c6.194-6.193,2.401-16.961-6.327-17.701
				c-33.982-2.879-68.235,9.111-92.986,33.861c-31.865,31.867-42.618,79.951-27.414,122.544
				C1112.308,917.425,1111.676,920.478,1109.569,922.498z"/>
		</g>
		<g>
			<path style="fill:#FFFFFF;" d="M785.351,1269.867c-6.211-6.211-16.24-6.338-22.609-0.288l-36.43,34.615
				c-2.023,1.923-4.944,2.458-7.574,1.52c-42.59-15.205-90.678-4.453-122.55,27.413c-24.729,24.73-36.719,58.947-33.869,92.896
				c0.735,8.765,11.554,12.574,17.774,6.355l65.212-65.212c2.819-2.819,7.431-2.819,10.249,0l72.64,72.64
				c2.83,2.83,2.83,7.42,0,10.25l-65.225,65.225c-6.243,6.243-2.377,17.051,6.421,17.795c11.917,1.01,23.978,0.197,35.818-2.463
				c3.796-1.078,15.648-4.562,20.376-6.587c5.881-2.52,11.592-5.547,16.971-8.997c4.386-2.812,15.958-12.651,20.048-16.204
				c31.367-31.389,42.174-79.317,27.187-121.794c-0.956-2.708-0.351-5.708,1.693-7.723l35.368-34.875
				c6.401-6.312,6.438-16.629,0.081-22.985L785.351,1269.867z"/>
		</g>
		<g>
			<path style="fill:#FFFFFF;" d="M926.991,1065.519c-9.647-9.646-26.468-9.646-36.115,0L875,1081.395
				c-4.824,4.824-7.479,11.236-7.479,18.057c0,6.821,2.655,13.233,7.479,18.057l56.892,56.891l36.861,36.862
				c0.002,0.001,0.004,0.004,0.004,0.005l1.333,1.332c9.649,9.646,26.469,9.645,36.115,0l15.874-15.876
				c5.936-5.936,8.183-14.752,6.419-23.17c-21.328,10.22-47.691,6.567-65.341-11.083c-10.831-10.829-16.794-25.227-16.794-40.542
				c0-10.401,2.809-20.346,7.966-29.07L926.991,1065.519z"/>
		</g>
		<g>
			<path style="fill:#FFFFFF;" d="M866.088,1129.095c-5.181-5.181-12.068-8.034-19.394-8.034c-7.325,0-14.213,2.853-19.395,8.034
				l-13.202,13.202c-5.178,5.181-8.032,12.067-8.032,19.394c0,7.326,2.854,14.213,8.032,19.393l92.416,92.417
				c10.695,10.692,28.095,10.692,38.79,0l13.202-13.202c10.691-10.692,10.691-28.087,0.005-38.781l-55.56-55.562L866.088,1129.095z"
				/>
		</g>
		<g>
			<path style="fill:#FFFFFF;" d="M889.44,1301.952c3.342-3.341,5.183-7.786,5.183-12.513c0-4.727-1.842-9.171-5.183-12.513
				l-69.995-69.995c-3.343-3.343-7.787-5.185-12.513-5.185c-4.727,0-9.171,1.842-12.514,5.185l-13.24,13.238
				c-6.899,6.9-6.899,18.127,0,25.027l69.995,69.994c6.684,6.684,18.344,6.687,25.029,0l13.237-13.237
				C889.44,1301.953,889.44,1301.953,889.44,1301.952z"/>
		</g>
		<g>
			<path style="fill:#FFFFFF;" d="M1015.249,1029.296l-26.018-26.017c-9.647-9.646-26.468-9.646-36.115,0.001l-15.876,15.874
				c-9.956,9.957-9.956,26.157,0,36.114l26.018,26.018L1015.249,1029.296z"/>
		</g>
		<g>
			<path style="fill:#FFFFFF;" d="M1398.879,1364.778l-57.045-57.046c-9.553-9.552-25.528-7.376-32.168,4.39
				c-24.863,44.052-80.512,123.206-186.788,184.347c-11.658,6.707-13.954,22.547-4.484,32.097l59.966,60.468
				c6.043,6.094,15.222,7.654,23.062,4.165c122.53-54.526,182.312-163.377,201.615-205.57
				C1406.578,1379.887,1404.899,1370.798,1398.879,1364.778z M1239.674,1531.469c-2.656,10.012-10.751,18.108-20.763,20.766
				c-22.792,6.048-43.109-14.267-37.06-37.06c2.656-10.012,10.754-18.109,20.766-20.766
				C1225.408,1488.363,1245.72,1508.676,1239.674,1531.469z"/>
		</g>
		<g>
			<path style="fill:#FFFFFF;" d="M1084.32,1134.482c5.227-5.227,7.786-12.458,7.48-19.629l-42.71,42.761
				c7.122,0.337,14.238-2.139,19.354-7.254L1084.32,1134.482z"/>
		</g>
		<g>
			<path style="fill:#FFFFFF;" d="M1210.763,1507.826c-8.545,0-15.497,6.952-15.497,15.496c0,8.546,6.953,15.497,15.497,15.497
				s15.495-6.951,15.495-15.497C1226.258,1514.778,1219.308,1507.826,1210.763,1507.826z"/>
		</g>
		<g>
			<path style="fill:#FFFFFF;" d="M1126.449,1477.47c90.738-55.074,141.228-122.84,165.899-164.802
				c4.315-7.34,3.101-16.63-2.973-22.595l-45.27-44.46c-1.402-1.376-2.169-3.268-2.17-5.231
				c-0.093-111.981-85.288-198.866-86.148-199.73l-28.667-28.667c-8.739-8.739-20.082-14.829-32.394-15.921
				c-15.189-1.347-29.708,3.957-40.326,14.575l-79.854,79.856c-7.418,7.417-12.587,17.046-13.514,27.495
				c-1.143,12.893,3.359,25.215,12.374,34.228c16.703,16.703,43.878,16.703,60.582,0l64.922-64.995
				c2.829-2.833,7.417-2.834,10.25-0.006c2.83,2.829,2.835,7.418,0.005,10.25l-5.129,5.134c5.053,14.462,1.529,31.135-9.467,42.129
				l-15.877,15.877c-7.576,7.578-17.923,11.562-28.4,11.562c-2.488,0-4.977-0.296-7.445-0.749
				c2.399,12.865-1.302,26.335-10.519,35.55l-14.852,14.853c-5.818,5.82-13.054,10.26-21.117,11.911
				c-5.485,1.123-10.885,1.085-16.027,0.074c2.21,12.959-1.597,26.756-11.579,36.738l-13.201,13.202
				c-8.174,8.173-18.909,12.26-29.644,12.26c-5.84,0-11.638-1.321-17.065-3.739c-0.659,7.519-3.755,14.531-9.156,19.932l0,0
				l-13.237,13.237c-0.713,0.713-1.537,1.257-2.302,1.893c1.828,1.709,3.684,3.413,5.503,5.123
				c34.802,32.702,67.674,63.59,160.453,90.064c1.193,0.341,2.309,0.986,3.185,1.863l50.317,50.426
				C1109.673,1480.89,1119.107,1481.925,1126.449,1477.47z M1089.375,1304.375c-1.359,1.144-3.016,1.703-4.665,1.703
				c-2.063,0-4.115-0.876-5.548-2.58c-19.336-22.963-30.572-50.081-33.396-80.601c-0.368-3.986,2.565-7.515,6.551-7.883
				c3.942-0.376,7.512,2.562,7.883,6.549c2.546,27.516,12.656,51.942,30.05,72.599
				C1092.829,1297.224,1092.438,1301.797,1089.375,1304.375z"/>
		</g>
	</g>
	<g>
		<path style="fill:#1A4584;" d="M1218.31,1955.096h44.696c12.026,0,20.751,2.944,26.193,8.823
			c5.433,5.886,8.154,15.478,8.154,28.778v7.291c0,15.731-5.629,25.131-16.879,28.2c6.905,1.793,11.758,5.946,14.577,12.47
			c2.81,6.524,4.22,15.155,4.22,25.899c0,17.524-2.623,30.79-7.869,39.809c-5.246,9.015-14.711,13.525-28.396,13.525h-44.696
			V1955.096z M1257.26,2017.062c2.81,0,4.728-1.055,5.745-3.165c1.026-2.11,1.534-5.085,1.534-8.921v-16.5
			c0-5.371-2.364-8.056-7.092-8.056h-6.905v36.642H1257.26z M1266.654,2078.643v-20.528c0-4.987-0.74-8.759-2.203-11.317
			c-1.472-2.558-4.068-3.838-7.771-3.838h-6.138v47.769l3.256,0.192C1262.372,2090.921,1266.654,2086.828,1266.654,2078.643z"/>
		<path style="fill:#1A4584;" d="M1312.795,2110.586c-4.032-7.226-6.049-17.553-6.049-30.984c0-10.998,1.436-19.439,4.318-25.323
			c2.882-5.881,6.878-10.197,11.99-12.949c5.112-2.748,12.918-5.785,23.409-9.113l9.207-3.069v-0.384v-14.006
			c0-3.707-0.74-6.553-2.204-8.536c-1.481-1.983-3.238-2.973-5.281-2.973c-1.793,0-3.354,0.834-4.702,2.494
			c-1.338,1.664-2.007,3.903-2.007,6.713v8.442h-32.616v-4.603c0-13.812,3.229-23.661,9.688-29.545
			c6.459-5.879,16.977-8.823,31.555-8.823c11.642,0,21.108,3.038,28.396,9.113s10.938,14.676,10.938,25.8v107.051h-33.384v-16.692
			c-1.659,5.754-4.318,10.233-7.958,13.429c-3.649,3.2-7.967,4.797-12.954,4.797
			C1324.268,2121.425,1316.818,2117.812,1312.795,2110.586z M1353.842,2092.168c1.088-2.11,1.633-4.699,1.633-7.771v-39.133
			c-4.987,1.918-8.663,4.349-11.027,7.289c-2.364,2.944-3.551,7.034-3.551,12.278v18.032c0,8.314,2.489,12.472,7.485,12.472
			C1350.934,2095.335,1352.754,2094.278,1353.842,2092.168z"/>
		<path style="fill:#1A4584;" d="M1411.295,2109.72c-6.78-7.797-10.161-19.758-10.161-35.873v-43.357
			c0-12.149,1.312-22.029,3.934-29.641c2.614-7.605,7.03-13.333,13.239-17.169c6.2-3.836,14.8-5.754,25.8-5.754
			c12.017,0,21.804,3.136,29.351,9.398c7.547,6.267,11.312,15.032,11.312,26.282v21.487h-34.142v-19.758
			c0-3.709-0.509-6.553-1.534-8.538c-1.026-1.983-3.006-2.973-5.951-2.973c-5.495,0-8.243,3.903-8.243,11.703v68.103
			c0,3.198,0.669,5.919,2.007,8.154c1.347,2.239,3.363,3.359,6.049,3.359c2.685,0,4.702-1.086,6.04-3.263
			c1.347-2.172,1.945-4.989,1.82-8.442l-0.187-23.597h34.142v24.556c0,11.513-3.738,20.561-11.214,27.147
			c-7.485,6.588-17.173,9.88-29.066,9.88C1429.138,2121.425,1418.075,2117.524,1411.295,2109.72z"/>
		<path style="fill:#1A4584;" d="M1496.476,2119.891v-165.753h33.187v73.668l16.121-48.344h34.722l-21.099,61.006l26.853,79.424
			h-35.685l-20.911-66.187v66.187H1496.476z"/>
		<path style="fill:#1A4584;" d="M1646.309,2115.86c-3.328-3.709-4.987-9.655-4.987-17.84v-87.674h-9.403v-25.515h9.403v-29.735
			h32.616v29.735h9.59v25.515h-9.59v78.849c0,2.431,0.187,4.222,0.571,5.373c0.384,1.151,1.41,1.726,3.069,1.726
			c1.276,0,2.498-0.063,3.64-0.192c1.16-0.127,1.927-0.192,2.311-0.192v23.021c-1.918,0.51-4.702,1.052-8.35,1.628
			c-3.64,0.575-7.191,0.865-10.643,0.865C1655.703,2121.425,1649.636,2119.572,1646.309,2115.86z"/>
		<path style="fill:#1A4584;" d="M1692.923,2077.876v-56.4c0-13.302,3.747-23.887,11.223-31.751
			c7.485-7.866,17.745-11.798,30.796-11.798c13.043,0,23.302,3.932,30.787,11.798c7.485,7.864,11.223,18.449,11.223,31.751v56.4
			c0,29.034-14.006,43.549-42.01,43.549C1706.929,2121.425,1692.923,2106.91,1692.923,2077.876z M1740.883,2092.647
			c1.276-1.918,1.918-4.539,1.918-7.866v-68.678c0-8.183-2.623-12.278-7.86-12.278c-5.246,0-7.869,4.095-7.869,12.278v68.678
			c0,3.328,0.642,5.948,1.918,7.866c1.276,1.92,3.256,2.879,5.951,2.879C1737.618,2095.527,1739.608,2094.567,1740.883,2092.647z"/>
		<path style="fill:#1A4584;" d="M1410.724,2350.1l-17.646-164.792h32.224l9.216,103.98l9.207-103.98h30.698l8.823,103.98
			l8.823-103.98h32.616l-18.039,164.792h-39.521l-8.243-79.422l-7.869,79.422H1410.724z"/>
		<path style="fill:#1A4584;" d="M1532.732,2308.088v-56.403c0-13.299,3.747-23.882,11.223-31.751
			c7.485-7.864,17.753-11.799,30.796-11.799c13.043,0,23.311,3.934,30.796,11.799c7.476,7.868,11.214,18.451,11.214,31.751v56.403
			c0,29.034-13.998,43.547-42.01,43.547C1546.738,2351.635,1532.732,2337.122,1532.732,2308.088z M1580.693,2322.859
			c1.285-1.918,1.927-4.536,1.927-7.864v-68.681c0-8.185-2.623-12.278-7.869-12.278s-7.869,4.093-7.869,12.278v68.681
			c0,3.328,0.642,5.946,1.918,7.864c1.276,1.918,3.265,2.877,5.951,2.877C1577.436,2325.736,1579.417,2324.777,1580.693,2322.859z"
			/>
		<path style="fill:#1A4584;" d="M1629.233,2209.672h33.571v15.539c1.659-5.498,4.568-9.751,8.725-12.758
			c4.157-3.002,9.314-4.51,15.452-4.51v28.01c-4.737,0-9.947,0.671-15.639,2.014c-5.692,1.343-8.538,2.911-8.538,4.702v107.43
			h-33.571V2209.672z"/>
		<path style="fill:#1A4584;" d="M1695.224,2350.1v-165.753h33.187v73.67l16.121-48.344h34.722l-21.099,61.006l26.853,79.422
			h-35.685l-20.911-66.185v66.185H1695.224z"/>
	</g>
</g>
</svg>
