<?xml version="1.0" encoding="UTF-8"?>
<!DOCTYPE svg PUBLIC "-//W3C//DTD SVG 1.1//EN" "http://www.w3.org/Graphics/SVG/1.1/DTD/svg11.dtd">
<!-- Creator: CorelDRAW -->
<svg xmlns="http://www.w3.org/2000/svg" xml:space="preserve" width="6.82666in" height="6.82666in" style="shape-rendering:geometricPrecision; text-rendering:geometricPrecision; image-rendering:optimizeQuality; fill-rule:evenodd; clip-rule:evenodd"
viewBox="0 0 6.82666 6.82666"
 xmlns:xlink="http://www.w3.org/1999/xlink">
 <defs>
  <style type="text/css">
   <![CDATA[
    .fil0 {fill:none}
    .fil1 {fill:#013668}
    .fil3 {fill:#80CBC4}
    .fil2 {fill:#E0E0E0}
    .fil4 {fill:#FAC23C}
   ]]>
  </style>
 </defs>
 <rect class="fil0" width="6.82666" height="6.82666"/>
 <rect class="fil0" width="6.82666" height="6.82666"/>
 <g id="Layer_x0020_1">
  <metadata id="CorelCorpID_0Corel-Layer"/>
  <path class="fil1" d="M0.933331 1.65592l0.560354 0c0.0441811,0 0.08,0.0358189 0.08,0.08l0 3.27482 2.52185 0c0.0441811,0 0.08,0.0358189 0.08,0.08l0 0.560354c0,0.0441811 -0.0358189,0.08 -0.08,0.08l-3.1622 0c-0.0441811,0 -0.08,-0.0358189 -0.08,-0.08l0 -3.91518c0,-0.0441811 0.0358189,-0.08 0.08,-0.08zm0.480354 0.16l-0.400354 0 0 3.75518 3.0022 0 0 -0.400354 -2.52185 0c-0.0441811,0 -0.08,-0.0358189 -0.08,-0.08l0 -3.27482z"/>
  <path class="fil1" d="M1.49369 1.09557l3.1622 0c0.0441811,0 0.08,0.0358189 0.08,0.08l0 3.91517c0,0.0441811 -0.0358189,0.08 -0.08,0.08l-3.1622 0c-0.0441811,0 -0.08,-0.0358189 -0.08,-0.08l0 -3.91517c0,-0.0441811 0.0358189,-0.08 0.08,-0.08zm3.0822 0.16l-3.0022 0 0 3.75517 3.0022 0 0 -3.75517z"/>
  <path class="fil1" d="M5.33308 1.90383l0.293693 0c0.0659134,0 0.125783,0.0269055 0.169126,0.0702559 0.0433504,0.0433425 0.0702559,0.103213 0.0702559,0.169126l0 0.202969c0,0.0441811 -0.0358189,0.08 -0.08,0.08l-0.612457 0c-0.0441811,0 -0.08,-0.0358189 -0.08,-0.08l0 -0.202969c0,-0.0659134 0.0269055,-0.125783 0.0702559,-0.169126 0.0433425,-0.0433504 0.103213,-0.0702559 0.169126,-0.0702559zm0.293693 0.16l-0.293693 0c-0.0217441,0 -0.0415787,0.00895669 -0.056,0.0233819 -0.0144252,0.0144213 -0.0233819,0.0342559 -0.0233819,0.056l0 0.122969 0.452457 0 0 -0.122969c0,-0.0217441 -0.00895669,-0.0415787 -0.0233819,-0.056 -0.0144213,-0.0144252 -0.0342559,-0.0233819 -0.056,-0.0233819z"/>
  <path class="fil1" d="M5.07337 2.7132c-0.0441811,0 -0.08,0.0358189 -0.08,0.08 0,0.0441811 0.0358189,0.08 0.08,0.08l0.819957 0c0.0441811,0 0.08,-0.0358189 0.08,-0.08 0,-0.0441811 -0.0358189,-0.08 -0.08,-0.08l-0.819957 0z"/>
  <path class="fil1" d="M5.07337 3.1596c-0.0441811,0 -0.08,0.0358189 -0.08,0.08 0,0.0441811 0.0358189,0.08 0.08,0.08l0.819957 0c0.0441811,0 0.08,-0.0358189 0.08,-0.08 0,-0.0441811 -0.0358189,-0.08 -0.08,-0.08l-0.819957 0z"/>
  <path class="fil1" d="M5.06995 2.26619l0.819957 0c0.0441811,0 0.08,0.0358189 0.08,0.08l0 2.57319c0,0.0165276 -0.00501181,0.0318858 -0.0135984,0.0446339l-0.393799 0.654039 7.87402e-005 4.72441e-005c-0.0227874,0.0378504 -0.0719488,0.0500591 -0.109799,0.0272717 -0.012437,-0.00748819 -0.0221024,-0.0178189 -0.0286732,-0.0296693l-0.421256 -0.653043 -0.000137795 8.66142e-005c-0.00879528,-0.0136339 -0.0129094,-0.0289331 -0.0127717,-0.0440276l0 -1.94916 0 -0.623362c0,-0.0441811 0.0358189,-0.08 0.08,-0.08zm0.739957 0.16l-0.659957 0 0 0.543362 0 1.92656 0.341724 0.529756 0.318232 -0.528535 0 -2.47114z"/>
  <path class="fil1" d="M5.06995 4.83937c-0.0441811,0 -0.08,0.0358189 -0.08,0.08 0,0.0441811 0.0358189,0.08 0.08,0.08l0.819957 0c0.0441811,0 0.08,-0.0358189 0.08,-0.08 0,-0.0441811 -0.0358189,-0.08 -0.08,-0.08l-0.819957 0z"/>
  <path class="fil1" d="M1.97415 1.7471c-0.0441811,0 -0.08,0.0358189 -0.08,0.08 0,0.0441811 0.0358189,0.08 0.08,0.08l2.20128 0c0.0441811,0 0.08,-0.0358189 0.08,-0.08 0,-0.0441811 -0.0358189,-0.08 -0.08,-0.08l-2.20128 0z"/>
  <path class="fil1" d="M1.97415 2.26952c-0.0441811,0 -0.08,0.0358189 -0.08,0.08 0,0.0441811 0.0358189,0.08 0.08,0.08l2.20128 0c0.0441811,0 0.08,-0.0358189 0.08,-0.08 0,-0.0441811 -0.0358189,-0.08 -0.08,-0.08l-2.20128 0z"/>
  <path class="fil1" d="M1.97415 2.79194c-0.0441811,0 -0.08,0.0358189 -0.08,0.08 0,0.0441811 0.0358189,0.08 0.08,0.08l2.20128 0c0.0441811,0 0.08,-0.0358189 0.08,-0.08 0,-0.0441811 -0.0358189,-0.08 -0.08,-0.08l-2.20128 0z"/>
  <path class="fil1" d="M1.97415 3.83679c-0.0441811,0 -0.08,0.0358189 -0.08,0.08 0,0.0441811 0.0358189,0.08 0.08,0.08l2.20128 0c0.0441811,0 0.08,-0.0358189 0.08,-0.08 0,-0.0441811 -0.0358189,-0.08 -0.08,-0.08l-2.20128 0z"/>
  <path class="fil1" d="M1.97415 4.35921c-0.0441811,0 -0.08,0.0358189 -0.08,0.08 0,0.0441811 0.0358189,0.08 0.08,0.08l2.20128 0c0.0441811,0 0.08,-0.0358189 0.08,-0.08 0,-0.0441811 -0.0358189,-0.08 -0.08,-0.08l-2.20128 0z"/>
  <path class="fil1" d="M2.1177 3.31437c-0.0441811,0 -0.08,0.0358189 -0.08,0.08 0,0.0441811 0.0358189,0.08 0.08,0.08l0.732906 0c0.0441811,0 0.08,-0.0358189 0.08,-0.08 0,-0.0441811 -0.0358189,-0.08 -0.08,-0.08l-0.732906 0z"/>
  <path class="fil1" d="M3.29896 3.31437c-0.0441811,0 -0.08,0.0358189 -0.08,0.08 0,0.0441811 0.0358189,0.08 0.08,0.08l0.732906 0c0.0441811,0 0.08,-0.0358189 0.08,-0.08 0,-0.0441811 -0.0358189,-0.08 -0.08,-0.08l-0.732906 0z"/>
  <path class="fil2" d="M1.97415 1.7471l2.20128 0c0.0441811,0 0.08,0.0358189 0.08,0.08 0,0.0441811 -0.0358189,0.08 -0.08,0.08l-2.20128 0c-0.0441811,0 -0.08,-0.0358189 -0.08,-0.08 0,-0.0441811 0.0358189,-0.08 0.08,-0.08zm2.60174 3.26364l0 -3.75517 -3.0022 0 0 0.48035 0 3.27482 2.52185 0 0.48035 0zm-2.60174 -2.74122l2.20128 0c0.0441811,0 0.08,0.0358189 0.08,0.08 0,0.0441811 -0.0358189,0.08 -0.08,0.08l-2.20128 0c-0.0441811,0 -0.08,-0.0358189 -0.08,-0.08 0,-0.0441811 0.0358189,-0.08 0.08,-0.08zm0 0.522425l2.20128 0c0.0441811,0 0.08,0.0358189 0.08,0.08 0,0.0441811 -0.0358189,0.08 -0.08,0.08l-2.20128 0c-0.0441811,0 -0.08,-0.0358189 -0.08,-0.08 0,-0.0441811 0.0358189,-0.08 0.08,-0.08zm1.24482 0.602421c0,-0.0441811 0.0358189,-0.08 0.08,-0.08l0.732906 0c0.0441811,0 0.08,0.0358189 0.08,0.08 0,0.0441811 -0.0358189,0.08 -0.08,0.08l-0.732906 0c-0.0441811,0 -0.08,-0.0358189 -0.08,-0.08zm-1.18127 0c0,-0.0441811 0.0358189,-0.08 0.08,-0.08l0.732906 0c0.0441811,0 0.08,0.0358189 0.08,0.08 0,0.0441811 -0.0358189,0.08 -0.08,0.08l-0.732906 0c-0.0441811,0 -0.08,-0.0358189 -0.08,-0.08zm-0.0635512 0.442421l2.20128 0c0.0441811,0 0.08,0.0358189 0.08,0.08 0,0.0441811 -0.0358189,0.08 -0.08,0.08l-2.20128 0c-0.0441811,0 -0.08,-0.0358189 -0.08,-0.08 0,-0.0441811 0.0358189,-0.08 0.08,-0.08zm-0.08 0.602421c0,-0.0441811 0.0358189,-0.08 0.08,-0.08l2.20128 0c0.0441811,0 0.08,0.0358189 0.08,0.08 0,0.0441811 -0.0358189,0.08 -0.08,0.08l-2.20128 0c-0.0441811,0 -0.08,-0.0358189 -0.08,-0.08z"/>
  <path class="fil3" d="M1.41369 5.09074l0 -3.27482 -0.400354 0 0 3.75518 3.0022 0 0 -0.400354 -2.52185 0c-0.0441811,0 -0.08,-0.0358189 -0.08,-0.08z"/>
  <path class="fil4" d="M5.70615 2.26619l0 -0.122969c0,-0.0217441 -0.00895669,-0.0415787 -0.0233819,-0.056 -0.0144213,-0.0144252 -0.0342559,-0.0233819 -0.056,-0.0233819l-0.293693 0c-0.0217441,0 -0.0415787,0.00895669 -0.056,0.0233819 -0.0144252,0.0144213 -0.0233819,0.0342559 -0.0233819,0.056l0 0.122969 0.452457 0z"/>
  <polygon class="fil4" points="5.49167,5.42586 5.74846,4.99937 5.21656,4.99937 "/>
  <polygon class="fil3" points="5.80991,4.83937 5.80991,3.3196 5.14995,3.3196 5.14995,4.83937 "/>
  <polygon class="fil3" points="5.80991,2.7132 5.80991,2.42619 5.78615,2.42619 5.1737,2.42619 5.14995,2.42619 5.14995,2.7132 "/>
  <polygon class="fil3" points="5.80991,3.1596 5.80991,2.8732 5.14995,2.8732 5.14995,2.96955 5.14995,3.1596 "/>
 </g>
</svg>
