<?xml version="1.0" encoding="utf-8"?>
<!-- Generator: Adobe Illustrator 17.0.0, SVG Export Plug-In . SVG Version: 6.00 Build 0)  -->
<!DOCTYPE svg PUBLIC "-//W3C//DTD SVG 1.1//EN" "http://www.w3.org/Graphics/SVG/1.1/DTD/svg11.dtd">
<svg version="1.1" id="Calque_1" xmlns="http://www.w3.org/2000/svg" xmlns:xlink="http://www.w3.org/1999/xlink" x="0px" y="0px"
	 width="512px" height="512px" viewBox="0 0 512 512" enable-background="new 0 0 512 512" xml:space="preserve">
<g>
	<path fill="#23130D" d="M398.77,84.54H331.9v-6.3c0-9.83-8-17.83-17.82-17.83h-21.01V21.45c0-2.76-2.24-5-5-5h-64.13
		c-2.77,0-5,2.24-5,5v38.96h-21.02c-9.82,0-17.82,8-17.82,17.83v6.3h-66.87c-9.84,0-17.84,8-17.84,17.84v375.34
		c0,9.83,8,17.83,17.84,17.83h285.54c9.84,0,17.84-8,17.84-17.83V102.38C416.61,92.54,408.61,84.54,398.77,84.54z M228.94,26.45
		h54.13v58.09h-54.13V26.45z M190.1,78.24c0-4.32,3.51-7.83,7.82-7.83h21.02v14.13h-13.35c-2.77,0-5,2.24-5,5c0,2.77,2.23,5,5,5
		h82.47c0,0,0,0,0.01,0h18.34c2.77,0,5-2.23,5-5c0-2.76-2.23-5-5-5h-13.34V70.41h21.01c4.31,0,7.82,3.51,7.82,7.83v22.61
		c0,4.32-3.51,7.84-7.82,7.84H197.92c-4.31,0-7.82-3.52-7.82-7.84V78.24z M406.61,477.72c0,4.32-3.52,7.83-7.84,7.83H113.23
		c-4.32,0-7.84-3.51-7.84-7.83V102.38c0-4.32,3.52-7.84,7.84-7.84h66.87v6.31c0,9.83,8,17.84,17.82,17.84h116.16
		c9.82,0,17.82-8.01,17.82-17.84v-6.31h66.87c4.32,0,7.84,3.52,7.84,7.84V477.72z"/>
	<path fill="#636368" d="M321.9,78.24v22.61c0,4.32-3.51,7.84-7.82,7.84H197.92c-4.31,0-7.82-3.52-7.82-7.84V78.24
		c0-4.32,3.51-7.83,7.82-7.83h21.02v14.13h-13.35c-2.77,0-5,2.24-5,5c0,2.77,2.23,5,5,5h82.47c0,0,0,0,0.01,0h18.34
		c2.77,0,5-2.23,5-5c0-2.76-2.23-5-5-5h-13.34V70.41h21.01C318.39,70.41,321.9,73.92,321.9,78.24z"/>
	<path opacity="0.2" d="M321.9,92.35v8.5c0,4.32-3.51,7.84-7.82,7.84H197.92c-4.31,0-7.82-3.52-7.82-7.84v-8.5
		c0,4.32,3.51,7.84,7.82,7.84h116.16C318.39,100.19,321.9,96.67,321.9,92.35z"/>
	<rect x="228.94" y="26.45" fill="#E1E1E5" width="54.13" height="58.09"/>
	<rect x="228.94" y="74.5" opacity="0.2" width="54.13" height="10.04"/>
	<path fill="#3594BF" d="M398.77,94.54H331.9v6.31c0,9.83-8,17.84-17.82,17.84H197.92c-9.82,0-17.82-8.01-17.82-17.84v-6.31h-66.87
		c-4.32,0-7.84,3.52-7.84,7.84v375.34c0,4.32,3.52,7.83,7.84,7.83h285.54c4.32,0,7.84-3.51,7.84-7.83V102.38
		C406.61,98.06,403.09,94.54,398.77,94.54z M387.83,396.79c0,0.04-0.01,0.07-0.01,0.1c0,0.3-0.03,0.6-0.09,0.89
		c-0.01,0.04-0.02,0.08-0.03,0.11c-0.06,0.25-0.13,0.49-0.23,0.73c-0.03,0.09-0.07,0.18-0.11,0.27c-0.09,0.18-0.19,0.36-0.3,0.54
		c-0.04,0.08-0.09,0.15-0.14,0.23c-0.16,0.22-0.33,0.44-0.53,0.64l-67.34,67.34c-0.23,0.23-0.49,0.44-0.76,0.63
		c-0.09,0.06-0.19,0.09-0.28,0.15c-0.19,0.11-0.38,0.22-0.58,0.31c-0.13,0.05-0.26,0.07-0.39,0.12c-0.18,0.05-0.36,0.12-0.55,0.16
		c-0.31,0.06-0.63,0.09-0.95,0.1H129.17c-2.76,0-5-2.24-5-5V142.56c0-2.76,2.24-5,5-5h253.66c2.76,0,5,2.24,5,5V396.79z"/>
	<path opacity="0.2" d="M398.77,98.54c2.117,0,3.84,1.723,3.84,3.84v375.34c0,2.112-1.723,3.83-3.84,3.83H113.23
		c-2.117,0-3.84-1.718-3.84-3.83V102.38c0-2.117,1.723-3.84,3.84-3.84h62.87v2.31c0,12.043,9.788,21.84,21.82,21.84h116.16
		c12.032,0,21.82-9.797,21.82-21.84v-2.31H398.77 M129.17,473.11h186.37h0.063l0.062-0.002c0.556-0.017,1.089-0.075,1.585-0.171
		l0.032-0.006l0.032-0.007c0.318-0.067,0.572-0.148,0.74-0.202l0.057-0.019l0.185-0.051l0.052-0.02
		c0.173-0.048,0.345-0.103,0.518-0.169l0.103-0.04l0.101-0.045c0.358-0.161,0.66-0.333,0.89-0.465
		c0.13-0.064,0.328-0.168,0.549-0.315l0.042-0.028l0.041-0.029c0.478-0.336,0.911-0.697,1.286-1.073l67.34-67.34
		c0.406-0.406,0.714-0.81,0.937-1.116l0.09-0.124l0.074-0.119c0.048-0.075,0.127-0.197,0.216-0.356
		c0.145-0.242,0.28-0.489,0.403-0.734l0.042-0.083l0.037-0.084c0.068-0.153,0.133-0.307,0.19-0.461
		c0.141-0.354,0.258-0.72,0.362-1.138c0.015-0.052,0.029-0.107,0.043-0.161l0.02-0.081l0.017-0.081
		c0.099-0.479,0.156-0.971,0.17-1.466c0.008-0.098,0.013-0.211,0.013-0.335V142.56c0-4.963-4.037-9-9-9H129.17c-4.963,0-9,4.037-9,9
		v321.55C120.17,469.073,124.207,473.11,129.17,473.11 M398.77,94.54H331.9v6.31c0,9.83-8,17.84-17.82,17.84H197.92
		c-9.82,0-17.82-8.01-17.82-17.84v-6.31h-66.87c-4.32,0-7.84,3.52-7.84,7.84v375.34c0,4.32,3.52,7.83,7.84,7.83h285.54
		c4.32,0,7.84-3.51,7.84-7.83V102.38C406.61,98.06,403.09,94.54,398.77,94.54L398.77,94.54z M129.17,469.11c-2.76,0-5-2.24-5-5
		V142.56c0-2.76,2.24-5,5-5h253.66c2.76,0,5,2.24,5,5v254.23c0,0.04-0.01,0.07-0.01,0.1c0,0.3-0.03,0.6-0.09,0.89
		c-0.01,0.04-0.02,0.08-0.03,0.11c-0.06,0.25-0.13,0.49-0.23,0.73c-0.03,0.09-0.07,0.18-0.11,0.27c-0.09,0.18-0.19,0.36-0.3,0.54
		c-0.04,0.08-0.09,0.15-0.14,0.23c-0.16,0.22-0.33,0.44-0.53,0.64l-67.34,67.34c-0.23,0.23-0.49,0.44-0.76,0.63
		c-0.09,0.06-0.19,0.09-0.28,0.15c-0.19,0.11-0.38,0.22-0.58,0.31c-0.13,0.05-0.26,0.07-0.39,0.12c-0.18,0.05-0.36,0.12-0.55,0.16
		c-0.31,0.06-0.63,0.09-0.95,0.1H129.17L129.17,469.11z"/>
	<path fill="#23130D" d="M382.83,137.56H129.17c-2.76,0-5,2.24-5,5v321.55c0,2.76,2.24,5,5,5h186.37c0.32-0.01,0.64-0.04,0.95-0.1
		c0.19-0.04,0.37-0.11,0.55-0.16c0.13-0.05,0.26-0.07,0.39-0.12c0.2-0.09,0.39-0.2,0.58-0.31c0.09-0.06,0.19-0.09,0.28-0.15
		c0.27-0.19,0.53-0.4,0.76-0.63l67.34-67.34c0.2-0.2,0.37-0.42,0.53-0.64c0.05-0.08,0.1-0.15,0.14-0.23
		c0.11-0.18,0.21-0.36,0.3-0.54c0.04-0.09,0.08-0.18,0.11-0.27c0.1-0.24,0.17-0.48,0.23-0.73c0.01-0.03,0.02-0.07,0.03-0.11
		c0.06-0.29,0.09-0.59,0.09-0.89c0-0.03,0.01-0.06,0.01-0.1V142.56C387.83,139.8,385.59,137.56,382.83,137.56z M320.51,452.04
		v-50.25h50.25L320.51,452.04z M377.83,391.79h-62.32c-2.76,0-5,2.24-5,5v62.32H134.17V147.56h243.66V391.79z"/>
	<polygon fill="#636368" points="370.76,401.79 320.51,452.04 320.51,401.79 	"/>
	<polygon opacity="0.2" fill="#23130D" points="370.76,401.79 320.51,452.04 320.51,434.79 353.51,401.79 	"/>
	<path fill="#E1E1E5" d="M134.17,147.56v311.55h176.34v-62.32c0-2.76,2.24-5,5-5h62.32V147.56H134.17z M183.1,422.3
		c-19.24,0-34.88-15.65-34.88-34.89c0-19.23,15.64-34.88,34.88-34.88c19.23,0,34.88,15.65,34.88,34.88
		C217.98,406.65,202.33,422.3,183.1,422.3z M183.1,339.2c-19.24,0-34.88-15.65-34.88-34.88c0-19.24,15.64-34.89,34.88-34.89
		c19.23,0,34.88,15.65,34.88,34.89C217.98,323.55,202.33,339.2,183.1,339.2z M183.1,256.1c-19.24,0-34.88-15.65-34.88-34.89
		c0-19.23,15.64-34.88,34.88-34.88c19.23,0,34.88,15.65,34.88,34.88C217.98,240.45,202.33,256.1,183.1,256.1z M287.73,384.28
		l-9.02,8.79c-0.17,0.21-0.4,0.93-0.38,1.24l2.12,12.36c0.38,2.21-0.11,4.25-1.38,5.76c-1.91,2.26-5.28,2.81-8.26,1.25l-11.14-5.86
		c-0.02,0-0.26-0.07-0.63-0.07s-0.61,0.07-0.67,0.09l-11.1,5.84c-1.16,0.61-2.35,0.92-3.52,0.92c-1.85,0-3.57-0.79-4.73-2.17
		c-1.28-1.51-1.77-3.55-1.39-5.76l2.13-12.41c0.01-0.26-0.22-0.98-0.42-1.22l-8.99-8.76c-2.01-1.96-2.75-4.54-1.98-6.91
		c0.77-2.36,2.89-4.02,5.67-4.42l12.46-1.81c0.26-0.07,0.86-0.52,1.03-0.78l5.55-11.25c1.24-2.52,3.47-4.02,5.96-4.02
		c2.49,0,4.72,1.5,5.96,4.02l5.57,11.29c0.15,0.22,0.76,0.67,1.06,0.75l12.41,1.8c2.78,0.4,4.9,2.06,5.67,4.42
		C290.48,379.74,289.74,382.32,287.73,384.28z M287.73,302.84l-9.02,8.8c-0.17,0.2-0.4,0.92-0.38,1.24l2.12,12.35
		c0.38,2.21-0.11,4.25-1.38,5.76c-1.91,2.26-5.27,2.82-8.26,1.25l-11.14-5.86c-0.02,0-0.26-0.07-0.63-0.07
		c-0.36,0-0.61,0.07-0.67,0.09l-11.1,5.84c-1.16,0.61-2.35,0.92-3.52,0.92c-1.85,0-3.57-0.79-4.73-2.17
		c-1.28-1.51-1.77-3.55-1.39-5.76l2.13-12.41c0.01-0.26-0.22-0.98-0.42-1.22l-8.99-8.75c-2.01-1.96-2.75-4.55-1.98-6.91
		c0.77-2.37,2.89-4.03,5.67-4.43l12.46-1.81c0.25-0.07,0.86-0.51,1.03-0.78l5.55-11.25c1.24-2.51,3.47-4.02,5.96-4.02
		c2.49,0,4.72,1.51,5.96,4.02l5.57,11.3c0.15,0.22,0.76,0.66,1.06,0.74l12.41,1.8c2.78,0.41,4.9,2.06,5.67,4.42
		C290.48,298.3,289.74,300.88,287.73,302.84z M287.73,217.48l-9.02,8.8c-0.17,0.2-0.4,0.92-0.38,1.24l2.12,12.35
		c0.38,2.21-0.11,4.25-1.38,5.76c-1.91,2.26-5.28,2.82-8.26,1.25l-11.14-5.86c-0.02,0-0.26-0.07-0.63-0.07s-0.61,0.07-0.67,0.09
		l-11.1,5.84c-1.16,0.61-2.35,0.92-3.52,0.92c-1.85,0-3.57-0.79-4.73-2.17c-1.28-1.51-1.77-3.55-1.39-5.76l2.13-12.41
		c0.01-0.26-0.22-0.98-0.42-1.22l-8.98-8.75c-2.02-1.97-2.76-4.55-1.99-6.92c0.77-2.36,2.89-4.02,5.67-4.42l12.46-1.81
		c0.25-0.07,0.86-0.51,1.03-0.78l5.55-11.25c1.24-2.51,3.47-4.02,5.96-4.02c2.49,0,4.72,1.51,5.96,4.02l5.57,11.3
		c0.15,0.22,0.76,0.66,1.06,0.74l12.41,1.8c2.78,0.4,4.9,2.06,5.67,4.42C290.48,212.94,289.74,215.52,287.73,217.48z M361.59,217.49
		l-9.01,8.79c-0.17,0.2-0.4,0.92-0.38,1.24l2.12,12.35c0.38,2.21-0.12,4.25-1.39,5.76c-1.9,2.26-5.27,2.82-8.25,1.25l-11.15-5.86
		c-0.01,0-0.26-0.07-0.62-0.07c-0.37,0-0.62,0.07-0.67,0.09l-11.1,5.84c-1.17,0.61-2.35,0.92-3.53,0.92c-1.84,0-3.57-0.79-4.73-2.17
		c-1.27-1.51-1.76-3.55-1.39-5.75l2.13-12.42c0.02-0.26-0.22-0.98-0.42-1.22l-8.98-8.75c-2.01-1.97-2.75-4.55-1.98-6.92
		c0.77-2.36,2.89-4.02,5.66-4.42l12.46-1.81c0.26-0.07,0.87-0.51,1.04-0.78l5.55-11.25c1.24-2.51,3.47-4.02,5.96-4.02
		c2.48,0,4.71,1.51,5.96,4.02l5.57,11.3c0.14,0.22,0.75,0.66,1.06,0.74l12.41,1.8c2.78,0.4,4.89,2.06,5.66,4.42
		C364.34,212.94,363.6,215.52,361.59,217.49z"/>
	<path fill="#23130D" d="M287.73,217.48c2.01-1.96,2.75-4.54,1.98-6.91c-0.77-2.36-2.89-4.02-5.67-4.42l-12.41-1.8
		c-0.3-0.08-0.91-0.52-1.06-0.74l-5.57-11.3c-1.24-2.51-3.47-4.02-5.96-4.02c-2.49,0-4.72,1.51-5.96,4.02l-5.55,11.25
		c-0.17,0.27-0.78,0.71-1.03,0.78l-12.46,1.81c-2.78,0.4-4.9,2.06-5.67,4.42c-0.77,2.37-0.03,4.95,1.99,6.92l8.98,8.75
		c0.2,0.24,0.43,0.96,0.42,1.22l-2.13,12.41c-0.38,2.21,0.11,4.25,1.39,5.76c1.16,1.38,2.88,2.17,4.73,2.17
		c1.17,0,2.36-0.31,3.52-0.92l11.1-5.84c0.06-0.02,0.3-0.09,0.67-0.09s0.61,0.07,0.63,0.07l11.14,5.86
		c2.98,1.57,6.35,1.01,8.26-1.25c1.27-1.51,1.76-3.55,1.38-5.76l-2.12-12.35c-0.02-0.32,0.21-1.04,0.38-1.24L287.73,217.48z
		 M271.73,219.12c-2.47,2.41-3.85,6.63-3.26,10.03l0.98,5.72l-5.13-2.7c-1.91-1-3.93-1.22-5.28-1.22c-1.35,0-3.37,0.22-5.28,1.22
		l-5.13,2.69l0.98-5.71c0.59-3.4-0.78-7.62-3.26-10.04l-4.15-4.04l5.74-0.83c3.42-0.5,7.01-3.11,8.54-6.21l2.56-5.19l2.57,5.19
		c1.53,3.1,5.12,5.71,8.54,6.21l5.73,0.83L271.73,219.12z"/>
	<path fill="#F9C139" d="M271.73,219.12c-2.47,2.41-3.85,6.63-3.26,10.03l0.98,5.72l-5.13-2.7c-1.91-1-3.93-1.22-5.28-1.22
		c-1.35,0-3.37,0.22-5.28,1.22l-5.13,2.69l0.98-5.71c0.59-3.4-0.78-7.62-3.26-10.04l-4.15-4.04l5.74-0.83
		c3.42-0.5,7.01-3.11,8.54-6.21l2.56-5.19l2.57,5.19c1.53,3.1,5.12,5.71,8.54,6.21l5.73,0.83L271.73,219.12z"/>
	<path fill="#23130D" d="M361.59,217.49c2.01-1.97,2.75-4.55,1.98-6.92c-0.77-2.36-2.88-4.02-5.66-4.42l-12.41-1.8
		c-0.31-0.08-0.92-0.52-1.06-0.74l-5.57-11.3c-1.25-2.51-3.48-4.02-5.96-4.02c-2.49,0-4.72,1.51-5.96,4.02l-5.55,11.25
		c-0.17,0.27-0.78,0.71-1.04,0.78l-12.46,1.81c-2.77,0.4-4.89,2.06-5.66,4.42c-0.77,2.37-0.03,4.95,1.98,6.92l8.98,8.75
		c0.2,0.24,0.44,0.96,0.42,1.22l-2.13,12.42c-0.37,2.2,0.12,4.24,1.39,5.75c1.16,1.38,2.89,2.17,4.73,2.17
		c1.18,0,2.36-0.31,3.53-0.92l11.1-5.84c0.05-0.02,0.3-0.09,0.67-0.09c0.36,0,0.61,0.07,0.62,0.07l11.15,5.86
		c2.98,1.57,6.35,1.01,8.25-1.25c1.27-1.51,1.77-3.55,1.39-5.76l-2.12-12.35c-0.02-0.32,0.21-1.04,0.38-1.24L361.59,217.49z
		 M345.59,219.12c-2.47,2.41-3.84,6.63-3.26,10.03l0.98,5.71l-5.13-2.69c-1.91-1-3.92-1.22-5.27-1.22c-1.36,0-3.37,0.22-5.28,1.22
		l-5.13,2.7l0.98-5.72c0.58-3.4-0.79-7.62-3.26-10.04l-4.15-4.04l5.73-0.83c3.42-0.5,7.01-3.11,8.54-6.21l2.57-5.19l2.56,5.19
		c1.53,3.1,5.12,5.71,8.54,6.21l5.74,0.83L345.59,219.12z"/>
	<path fill="#F9C139" d="M345.59,219.12c-2.47,2.41-3.84,6.63-3.26,10.03l0.98,5.71l-5.13-2.69c-1.91-1-3.92-1.22-5.27-1.22
		c-1.36,0-3.37,0.22-5.28,1.22l-5.13,2.7l0.98-5.72c0.58-3.4-0.79-7.62-3.26-10.04l-4.15-4.04l5.73-0.83
		c3.42-0.5,7.01-3.11,8.54-6.21l2.57-5.19l2.56,5.19c1.53,3.1,5.12,5.71,8.54,6.21l5.74,0.83L345.59,219.12z"/>
	<path fill="#23130D" d="M287.73,302.84c2.01-1.96,2.75-4.54,1.98-6.91c-0.77-2.36-2.89-4.01-5.67-4.42l-12.41-1.8
		c-0.3-0.08-0.91-0.52-1.06-0.74l-5.57-11.3c-1.24-2.51-3.47-4.02-5.96-4.02c-2.49,0-4.72,1.51-5.96,4.02l-5.55,11.25
		c-0.17,0.27-0.78,0.71-1.03,0.78l-12.46,1.81c-2.78,0.4-4.9,2.06-5.67,4.43c-0.77,2.36-0.03,4.95,1.98,6.91l8.99,8.75
		c0.2,0.24,0.43,0.96,0.42,1.22l-2.13,12.41c-0.38,2.21,0.11,4.25,1.39,5.76c1.16,1.38,2.88,2.17,4.73,2.17
		c1.17,0,2.36-0.31,3.52-0.92l11.1-5.84c0.06-0.02,0.31-0.09,0.67-0.09c0.37,0,0.61,0.07,0.63,0.07l11.14,5.86
		c2.99,1.57,6.35,1.01,8.26-1.25c1.27-1.51,1.76-3.55,1.38-5.76l-2.12-12.35c-0.02-0.32,0.21-1.04,0.38-1.24L287.73,302.84z
		 M271.73,304.48c-2.48,2.41-3.85,6.63-3.26,10.03l0.98,5.72l-5.13-2.7c-1.91-1.01-3.93-1.22-5.28-1.22c-1.35,0-3.37,0.21-5.28,1.22
		l-5.13,2.69l0.98-5.71c0.59-3.4-0.78-7.62-3.26-10.04l-4.15-4.04l5.74-0.83c3.42-0.5,7.01-3.11,8.54-6.21l2.56-5.19l2.57,5.19
		c1.52,3.1,5.11,5.71,8.54,6.21l5.73,0.83L271.73,304.48z"/>
	<path fill="#EC7063" d="M271.73,304.48c-2.48,2.41-3.85,6.63-3.26,10.03l0.98,5.72l-5.13-2.7c-1.91-1.01-3.93-1.22-5.28-1.22
		c-1.35,0-3.37,0.21-5.28,1.22l-5.13,2.69l0.98-5.71c0.59-3.4-0.78-7.62-3.26-10.04l-4.15-4.04l5.74-0.83
		c3.42-0.5,7.01-3.11,8.54-6.21l2.56-5.19l2.57,5.19c1.52,3.1,5.11,5.71,8.54,6.21l5.73,0.83L271.73,304.48z"/>
	<path fill="#23130D" d="M287.73,384.28c2.01-1.96,2.75-4.54,1.98-6.91c-0.77-2.36-2.89-4.02-5.67-4.42l-12.41-1.8
		c-0.3-0.08-0.91-0.53-1.06-0.75L265,359.11c-1.24-2.52-3.47-4.02-5.96-4.02c-2.49,0-4.72,1.5-5.96,4.02l-5.55,11.25
		c-0.17,0.26-0.77,0.71-1.03,0.78l-12.46,1.81c-2.78,0.4-4.9,2.06-5.67,4.42c-0.77,2.37-0.03,4.95,1.98,6.91l8.99,8.76
		c0.2,0.24,0.43,0.96,0.42,1.22l-2.13,12.41c-0.38,2.21,0.11,4.25,1.39,5.76c1.16,1.38,2.88,2.17,4.73,2.17
		c1.17,0,2.36-0.31,3.52-0.92l11.1-5.84c0.06-0.02,0.3-0.09,0.67-0.09s0.61,0.07,0.63,0.07l11.14,5.86
		c2.98,1.56,6.35,1.01,8.26-1.25c1.27-1.51,1.76-3.55,1.38-5.76l-2.12-12.36c-0.02-0.31,0.21-1.03,0.38-1.24L287.73,384.28z
		 M271.73,385.92c-2.47,2.41-3.85,6.63-3.26,10.03l0.98,5.71l-5.13-2.7c-1.91-1-3.93-1.21-5.28-1.21c-1.35,0-3.37,0.21-5.28,1.22
		l-5.13,2.69l0.98-5.71c0.59-3.4-0.78-7.62-3.26-10.04l-4.15-4.04l5.74-0.84c3.41-0.49,7.01-3.1,8.54-6.2l2.56-5.2l2.57,5.2
		c1.53,3.1,5.12,5.71,8.53,6.2l5.74,0.84L271.73,385.92z"/>
	<path fill="#EC7063" d="M271.73,385.92c-2.47,2.41-3.85,6.63-3.26,10.03l0.98,5.71l-5.13-2.7c-1.91-1-3.93-1.21-5.28-1.21
		c-1.35,0-3.37,0.21-5.28,1.22l-5.13,2.69l0.98-5.71c0.59-3.4-0.78-7.62-3.26-10.04l-4.15-4.04l5.74-0.84
		c3.41-0.49,7.01-3.1,8.54-6.2l2.56-5.2l2.57,5.2c1.53,3.1,5.12,5.71,8.53,6.2l5.74,0.84L271.73,385.92z"/>
	<path fill="#23130D" d="M183.1,186.33c-19.24,0-34.88,15.65-34.88,34.88c0,19.24,15.64,34.89,34.88,34.89
		c19.23,0,34.88-15.65,34.88-34.89C217.98,201.98,202.33,186.33,183.1,186.33z M183.1,246.1c-13.72,0-24.88-11.16-24.88-24.89
		c0-13.71,11.16-24.88,24.88-24.88c13.72,0,24.88,11.17,24.88,24.88C207.98,234.94,196.82,246.1,183.1,246.1z"/>
	<path fill="#F9C139" d="M183.1,196.33c-13.72,0-24.88,11.17-24.88,24.88c0,13.73,11.16,24.89,24.88,24.89
		c13.72,0,24.88-11.16,24.88-24.89C207.98,207.5,196.82,196.33,183.1,196.33z M183.1,238.35c-9.46,0-17.14-7.67-17.14-17.14
		c0-9.46,7.68-17.13,17.14-17.13c9.46,0,17.14,7.67,17.14,17.13C200.24,230.68,192.56,238.35,183.1,238.35z"/>
	<path fill="#23130D" d="M183.1,269.43c-19.24,0-34.88,15.65-34.88,34.89c0,19.23,15.64,34.88,34.88,34.88
		c19.23,0,34.88-15.65,34.88-34.88C217.98,285.08,202.33,269.43,183.1,269.43z M183.1,329.2c-13.72,0-24.88-11.16-24.88-24.88
		c0-13.73,11.16-24.89,24.88-24.89c13.72,0,24.88,11.16,24.88,24.89C207.98,318.04,196.82,329.2,183.1,329.2z"/>
	<path fill="#EC7063" d="M207.98,304.32c0,13.72-11.16,24.88-24.88,24.88c-13.72,0-24.88-11.16-24.88-24.88
		c0-13.73,11.16-24.89,24.88-24.89C196.82,279.43,207.98,290.59,207.98,304.32z"/>
	<path fill="#23130D" d="M183.1,352.53c-19.24,0-34.88,15.65-34.88,34.88c0,19.24,15.64,34.89,34.88,34.89
		c19.23,0,34.88-15.65,34.88-34.89C217.98,368.18,202.33,352.53,183.1,352.53z M183.1,412.3c-13.72,0-24.88-11.17-24.88-24.89
		c0-13.72,11.16-24.88,24.88-24.88c13.72,0,24.88,11.16,24.88,24.88C207.98,401.13,196.82,412.3,183.1,412.3z"/>
	<path fill="#EC7063" d="M207.98,387.41c0,13.72-11.16,24.89-24.88,24.89c-13.72,0-24.88-11.17-24.88-24.89
		c0-13.72,11.16-24.88,24.88-24.88C196.82,362.53,207.98,373.69,207.98,387.41z"/>
	<path opacity="0.2" d="M183.1,283.43c11.513,0,20.88,9.371,20.88,20.89c0,11.513-9.367,20.88-20.88,20.88
		c-11.513,0-20.88-9.367-20.88-20.88C162.22,292.801,171.587,283.43,183.1,283.43 M183.1,279.43c-13.72,0-24.88,11.16-24.88,24.89
		c0,13.72,11.16,24.88,24.88,24.88c13.72,0,24.88-11.16,24.88-24.88C207.98,290.59,196.82,279.43,183.1,279.43L183.1,279.43z"/>
	<path opacity="0.2" d="M183.1,366.53c11.513,0,20.88,9.367,20.88,20.88c0,11.519-9.367,20.89-20.88,20.89
		c-11.513,0-20.88-9.371-20.88-20.89C162.22,375.897,171.587,366.53,183.1,366.53 M183.1,362.53c-13.72,0-24.88,11.16-24.88,24.88
		c0,13.72,11.16,24.89,24.88,24.89c13.72,0,24.88-11.17,24.88-24.89C207.98,373.69,196.82,362.53,183.1,362.53L183.1,362.53z"/>
	<path fill="#23130D" d="M200.24,221.21c0,9.47-7.68,17.14-17.14,17.14c-9.46,0-17.14-7.67-17.14-17.14
		c0-9.46,7.68-17.13,17.14-17.13C192.56,204.08,200.24,211.75,200.24,221.21z"/>
</g>
</svg>
