<?xml version="1.0" encoding="UTF-8" standalone="no"?>
<!DOCTYPE svg PUBLIC "-//W3C//DTD SVG 1.1//EN" "http://www.w3.org/Graphics/SVG/1.1/DTD/svg11.dtd">
<svg width="100%" height="100%" viewBox="0 0 4000 3000" version="1.1" xmlns="http://www.w3.org/2000/svg" xmlns:xlink="http://www.w3.org/1999/xlink" xml:space="preserve" xmlns:serif="http://www.serif.com/" style="fill-rule:evenodd;clip-rule:evenodd;stroke-linejoin:round;stroke-miterlimit:2;">
    <rect id="Web-18" serif:id="Web 18" x="0" y="0" width="4000" height="3000" style="fill:none;"/>
    <g id="Web-181" serif:id="Web 18">
        <rect x="0" y="0" width="4000" height="3000" style="fill:white;"/>
        <g id="Back">
            <path d="M3468.18,2542.99c166.788,-277.986 108.972,-602.157 -174.945,-772.503c-171.136,-102.68 -201.327,-186.666 -187.4,-428.81c21.322,-370.725 -67.641,-442.786 -538.788,-469.884c-282.405,-16.243 -181.317,-444.171 -545.95,-444.171c-482.531,0 -369.008,354.868 -693.536,444.171c-219.629,60.437 -599.785,133.192 -528.126,469.884c50.49,237.23 40.994,419.044 -133.462,515.974c-215.163,119.548 -357.029,407.353 -190.242,685.339l2992.45,-0Z" style="fill:rgb(226,238,255);"/>
            <path d="M3613.55,2556.51c0,-7.459 -6.055,-13.514 -13.514,-13.514l-3200.08,-0c-7.459,-0 -13.514,6.055 -13.514,13.514l-0,2.351c-0,7.459 6.055,13.515 13.514,13.515l3200.08,-0c7.459,-0 13.514,-6.056 13.514,-13.515l0,-2.351Z" style="fill:rgb(164,191,230);"/>
            <path d="M735.359,2542.99c-196.674,-43.458 -223.821,-251.114 -40.646,-229.973c-204.388,-130.777 -204.988,-302.609 -61.625,-280.588c0,-0 -188.28,-236.969 -60.313,-301.567c121.938,-61.555 179.629,146.85 196.674,215.03c-0,0 29.642,-73.549 99.648,-57.691c94.928,21.503 81.816,208.868 94.928,271.803c-0,0 40.916,-42.628 102.533,-27.534c134.356,32.913 34.614,410.52 34.614,410.52l-365.813,-0Z" style="fill:url(#_Linear1);"/>
            <path d="M663.504,1901.69l41.386,-120.825c2.171,3.319 4.286,6.72 6.346,10.191l-42.005,122.633l140.699,294.805l57.65,-320.616c0.497,0.104 1.006,0.215 1.517,0.331c2.582,0.585 5.084,1.293 7.498,2.114l-59.348,330.058c-0.12,0.671 -0.385,1.298 -0.765,1.842l121.026,253.586l126.811,-343.856c0.738,0.165 1.487,0.341 2.239,0.525c2.324,0.57 4.578,1.242 6.745,2.008l-129.546,351.274c-0.195,0.53 -0.478,1.004 -0.826,1.411l26.644,55.827l-10.312,-0l-26.78,-56.114l-359.87,-111.282c0.53,-3.095 1.243,-6.126 2.139,-9.079l352.277,108.934l-121.386,-254.34l-270.417,-142.419c0.314,-1.152 0.654,-2.287 1.021,-3.405l2.711,-5.147l259.98,136.922l-137.288,-287.658l-112.386,-26.371c-1.485,-3.511 -2.916,-7.035 -4.285,-10.565l111.534,26.172l-84.628,-177.321c0.303,-0.157 0.595,-0.307 0.89,-0.455c2.536,-1.28 5.045,-2.444 7.535,-3.498l83.194,174.318Z" style="fill:url(#_Linear2);"/>
            <path d="M3261.03,2542.99c196.674,-43.458 223.821,-251.114 40.646,-229.973c204.387,-130.777 204.988,-302.609 61.624,-280.588c0,-0 188.28,-236.969 60.314,-301.567c-121.938,-61.555 -179.629,146.85 -196.674,215.03c-0,0 -29.643,-73.549 -99.648,-57.691c-94.928,21.503 -81.817,208.868 -94.928,271.803c-0,0 -40.917,-42.628 -102.533,-27.534c-134.356,32.913 -34.615,410.52 -34.615,410.52l365.814,-0Z" style="fill:url(#_Linear3);"/>
            <path d="M3332.88,1901.69l-41.385,-120.825c-2.171,3.319 -4.286,6.72 -6.346,10.191l42.004,122.633l-140.698,294.805l-57.65,-320.616c-0.497,0.104 -1.006,0.215 -1.517,0.331c-2.582,0.585 -5.084,1.293 -7.499,2.114l59.348,330.058c0.121,0.671 0.385,1.298 0.766,1.842l-121.027,253.586l-126.81,-343.856c-0.739,0.165 -1.487,0.341 -2.239,0.525c-2.325,0.57 -4.579,1.242 -6.746,2.008l129.547,351.274c0.195,0.53 0.478,1.004 0.825,1.411l-26.643,55.827l10.311,-0l26.781,-56.114l359.87,-111.282c-0.53,-3.095 -1.244,-6.126 -2.14,-9.079l-352.276,108.934l121.386,-254.34l270.417,-142.419c-0.314,-1.152 -0.655,-2.287 -1.021,-3.405l-2.711,-5.147l-259.98,136.922l137.287,-287.658l112.387,-26.371c1.484,-3.511 2.915,-7.035 4.285,-10.565l-111.534,26.172l84.628,-177.321c-0.303,-0.157 -0.596,-0.307 -0.89,-0.455c-2.536,-1.28 -5.045,-2.444 -7.535,-3.498l-83.195,174.318Z" style="fill:url(#_Linear4);"/>
            <path d="M3307.49,2542.99c-0,-0 109.613,-53.262 92.45,-141.983c-0,0 -101.415,-27.237 -158.464,63.383c-0,0 77.107,-151.478 -0,-259.917c-0,0 -128.904,55.153 -87,259.917c0,0 -19.636,-142.169 -123.932,-151.478c0,0 -39.556,76.702 40.745,176.816c-0,0 -64.079,-99.93 -145.265,-49.17c0,-0 18.335,74.616 64.964,102.432l316.502,-0Z" style="fill:url(#_Linear5);"/>
            <path d="M934.773,2542.99c-0,-0 109.613,-53.262 92.45,-141.983c-0,0 -101.415,-27.237 -158.464,63.383c-0,0 77.106,-151.478 -0,-259.917c-0,0 -128.904,55.153 -87,259.917c0,0 -19.637,-142.169 -123.932,-151.478c0,0 -39.556,76.702 40.745,176.816c-0,0 -64.08,-99.93 -145.265,-49.17c0,-0 18.334,74.616 64.964,102.432l316.502,-0Z" style="fill:url(#_Linear6);"/>
        </g>
        <g id="Front">
            <path d="M3049.83,1178.33c-0,-7.259 -5.894,-13.153 -13.153,-13.153l-2101.05,0c-7.259,0 -13.152,5.894 -13.152,13.153l-0,1288.95c-0,7.259 5.893,13.152 13.152,13.152l2101.05,0c7.259,0 13.153,-5.893 13.153,-13.152l-0,-1288.95Z" style="fill:rgb(22,24,104);"/>
            <path d="M3027.86,1201.28c0,-6.402 -5.198,-11.6 -11.6,-11.6l-2060.2,-0c-6.402,-0 -11.6,5.198 -11.6,11.6l0,1136.83c0,6.402 5.198,11.6 11.6,11.6l2060.2,0c6.402,0 11.6,-5.198 11.6,-11.6l0,-1136.83Z" style="fill:rgb(153,213,255);"/>
            <g>
                <path d="M2818.14,1337.78c0,-10.988 -8.92,-19.908 -19.908,-19.908l-906.736,-0c-10.988,-0 -19.908,8.92 -19.908,19.908l-0,623.784c-0,10.988 8.92,19.908 19.908,19.908l906.736,0c10.988,0 19.908,-8.92 19.908,-19.908l0,-623.784Z" style="fill:rgb(123,193,242);"/>
                <path d="M2223.37,1508.54c-0,-12.777 -10.373,-23.15 -23.15,-23.15l-1054.4,-0c-12.777,-0 -23.151,10.373 -23.151,23.15l0,725.372c0,12.777 10.374,23.151 23.151,23.151l1054.4,-0c12.777,-0 23.15,-10.374 23.15,-23.151l-0,-725.372Z" style="fill:rgb(230,242,255);"/>
                <path d="M1122.67,1607.24l1100.71,0l-0,-97.115c-0,-13.648 -11.08,-24.728 -24.728,-24.728l-1051.25,-0c-13.647,-0 -24.728,11.08 -24.728,24.728l0,97.115Z" style="fill:rgb(67,100,177);"/>
                <circle cx="1200.98" cy="1546.32" r="18.861" style="fill:rgb(240,247,255);"/>
                <circle cx="1314.89" cy="1546.32" r="18.861" style="fill:rgb(240,247,255);"/>
                <circle cx="1428.81" cy="1546.32" r="18.861" style="fill:rgb(240,247,255);"/>
                <path d="M1602.55,1673.9c0,-5.863 -4.76,-10.623 -10.623,-10.623l-388.213,0c-5.863,0 -10.623,4.76 -10.623,10.623l-0,155.81c-0,5.863 4.76,10.624 10.623,10.624l388.213,-0c5.863,-0 10.623,-4.761 10.623,-10.624l0,-155.81Z" style="fill:rgb(173,196,238);"/>
                <path d="M1800.77,1900.14c-0,-2.084 -1.692,-3.775 -3.776,-3.775l-600.122,-0c-2.084,-0 -3.775,1.691 -3.775,3.775l-0,67.96c-0,2.084 1.691,3.776 3.775,3.776l600.122,0c2.084,0 3.776,-1.692 3.776,-3.776l-0,-67.96Z" style="fill:rgb(173,196,238);"/>
                <path d="M1800.77,2018.24c-0,-4.886 -3.967,-8.853 -8.853,-8.853l-589.967,0c-4.887,0 -8.853,3.967 -8.853,8.853l-0,159.351c-0,4.886 3.966,8.853 8.853,8.853l589.967,-0c4.886,-0 8.853,-3.967 8.853,-8.853l-0,-159.351Z" style="fill:rgb(173,196,238);"/>
                <path d="M2152.95,1910.87c-0,-8.005 -6.499,-14.503 -14.504,-14.503l-279.684,-0c-8.005,-0 -14.504,6.498 -14.504,14.503l-0,261.066c-0,8.005 6.499,14.504 14.504,14.504l279.684,-0c8.005,-0 14.504,-6.499 14.504,-14.504l-0,-261.066Z" style="fill:rgb(173,196,238);"/>
                <path d="M1871.59,1607.24l-0,354.322c-0,10.988 8.92,19.908 19.908,19.908l331.873,0l-0,-362.178c-0,-12.777 -351.781,-12.052 -351.781,-12.052Z" style="fill:rgb(213,232,254);"/>
                <path d="M1871.59,1896.37l-0,65.193c-0,10.988 8.92,19.908 19.908,19.908l261.448,0l-0,-70.598c-0,-8.005 -6.499,-14.503 -14.504,-14.503l-266.852,-0Z" style="fill:rgb(137,169,228);"/>
                <path d="M1871.59,1485.39l-0,121.843l351.781,0l-0,-97.115c-0,-13.648 -11.08,-24.728 -24.728,-24.728l-327.053,-0Z" style="fill:rgb(56,85,149);"/>
            </g>
            <g>
                <path d="M2849.64,1302.23c0,-10.988 -8.92,-19.908 -19.908,-19.908l-906.736,-0c-10.988,-0 -19.908,8.92 -19.908,19.908l-0,623.784c-0,10.988 8.92,19.908 19.908,19.908l906.736,0c10.988,0 19.908,-8.92 19.908,-19.908l0,-623.784Z" style="fill:rgb(250,252,255);"/>
                <path d="M1903.09,1387.1l946.552,-0l0,-83.514c0,-11.737 -9.528,-21.265 -21.265,-21.265l-904.022,-0c-11.737,-0 -21.265,9.528 -21.265,21.265l-0,83.514Z" style="fill:rgb(33,64,136);"/>
                <circle cx="1970.43" cy="1334.71" r="16.219" style="fill:rgb(240,247,255);"/>
                <circle cx="2068.39" cy="1334.71" r="16.219" style="fill:rgb(240,247,255);"/>
                <circle cx="2166.35" cy="1334.71" r="16.219" style="fill:rgb(240,247,255);"/>
                <path d="M2301.87,1462.07c0,-9.175 -7.449,-16.624 -16.624,-16.624l-298.19,0c-9.175,0 -16.624,7.449 -16.624,16.624l0,49.873c0,9.175 7.449,16.624 16.624,16.624l298.19,-0c9.175,-0 16.624,-7.449 16.624,-16.624l0,-49.873Z" style="fill:rgb(251,208,104);"/>
                <path d="M2564.29,1569.78c0,-3.581 -2.907,-6.488 -6.488,-6.488l-580.879,-0c-3.581,-0 -6.488,2.907 -6.488,6.488l0,19.463c0,3.581 2.907,6.488 6.488,6.488l580.879,-0c3.581,-0 6.488,-2.907 6.488,-6.488l0,-19.463Z" style="fill:rgb(74,207,182);"/>
                <path d="M2793.92,1569.78c0,-3.581 -2.907,-6.488 -6.487,-6.488l-181.108,-0c-3.58,-0 -6.488,2.907 -6.488,6.488l0,19.463c0,3.581 2.908,6.488 6.488,6.488l181.108,-0c3.58,-0 6.487,-2.907 6.487,-6.488l0,-19.463Z" style="fill:rgb(254,116,116);"/>
                <path d="M2164.52,1626.63c0,-3.581 -2.907,-6.488 -6.488,-6.488l-181.107,-0c-3.581,-0 -6.488,2.907 -6.488,6.488l0,19.463c0,3.581 2.907,6.488 6.488,6.488l181.107,-0c3.581,-0 6.488,-2.907 6.488,-6.488l0,-19.463Z" style="fill:rgb(31,153,250);"/>
                <path d="M2793.92,1626.63c0,-3.581 -2.907,-6.488 -6.487,-6.488l-583.135,-0c-3.581,-0 -6.488,2.907 -6.488,6.488l0,19.463c0,3.581 2.907,6.488 6.488,6.488l583.135,-0c3.58,-0 6.487,-2.907 6.487,-6.488l0,-19.463Z" style="fill:rgb(251,208,104);"/>
                <path d="M2446.09,1797.16c-0,-3.581 -2.907,-6.488 -6.488,-6.488l-462.682,0c-3.581,0 -6.488,2.907 -6.488,6.488l0,19.463c0,3.581 2.907,6.488 6.488,6.488l462.682,-0c3.581,-0 6.488,-2.907 6.488,-6.488l-0,-19.463Z" style="fill:rgb(251,208,104);"/>
                <path d="M2798.27,1797.16c-0,-3.581 -2.907,-6.488 -6.488,-6.488l-314.878,0c-3.581,0 -6.488,2.907 -6.488,6.488l0,19.463c0,3.581 2.907,6.488 6.488,6.488l314.878,-0c3.581,-0 6.488,-2.907 6.488,-6.488l-0,-19.463Z" style="fill:rgb(74,207,182);"/>
                <path d="M2414.56,1683.47c0,-3.581 -2.907,-6.488 -6.488,-6.488l-431.15,-0c-3.581,-0 -6.488,2.907 -6.488,6.488l0,19.463c0,3.581 2.907,6.488 6.488,6.488l431.15,-0c3.581,-0 6.488,-2.907 6.488,-6.488l0,-19.463Z" style="fill:rgb(192,124,241);"/>
                <path d="M2633.31,1740.31c0,-3.581 -2.907,-6.488 -6.487,-6.488l-649.901,-0c-3.581,-0 -6.488,2.907 -6.488,6.488l0,19.463c0,3.581 2.907,6.488 6.488,6.488l649.901,-0c3.58,-0 6.487,-2.907 6.487,-6.488l0,-19.463Z" style="fill:rgb(254,116,116);"/>
                <path d="M2582.07,1854c-0,-3.581 -2.907,-6.488 -6.488,-6.488l-598.662,0c-3.581,0 -6.488,2.907 -6.488,6.488l0,19.463c0,3.581 2.907,6.488 6.488,6.488l598.662,0c3.581,0 6.488,-2.907 6.488,-6.488l-0,-19.463Z" style="fill:rgb(31,153,250);"/>
            </g>
            <path d="M2506.96,2277.3l47.886,-0l79.011,-270.459l-47.885,0l-79.012,270.459Zm-3.622,-207.833l-122.107,53.104l0,51.094l122.107,53.103l0,-48.797l-72.546,-29.853l72.546,-29.853l0,-48.798Zm131.746,0l0,48.798l72.546,29.853l-72.546,29.853l0,48.797l122.107,-53.103l0,-51.094l-122.107,-53.104Z" style="fill:rgb(0,67,133);fill-rule:nonzero;"/>
            <path d="M3144.65,2426.7l-2316.98,-0l-0,0.001c-0,64.226 52.065,116.291 116.29,116.291c395.885,-0 1688.52,-0 2084.4,-0c64.226,-0 116.291,-52.065 116.291,-116.291l-0,-0.001Z" style="fill:rgb(50,76,143);"/>
        </g>
    </g>
    <defs>
        <linearGradient id="_Linear1" x1="0" y1="0" x2="1" y2="0" gradientUnits="userSpaceOnUse" gradientTransform="matrix(114.324,748.504,-902.557,137.854,796.602,1794.49)"><stop offset="0" style="stop-color:rgb(141,231,146);stop-opacity:1"/><stop offset="1" style="stop-color:rgb(10,118,80);stop-opacity:1"/></linearGradient>
        <linearGradient id="_Linear2" x1="0" y1="0" x2="1" y2="-0.0314185" gradientUnits="userSpaceOnUse" gradientTransform="matrix(101.08,741.474,-797.998,136.559,772.529,1801.52)"><stop offset="0" style="stop-color:rgb(222,246,228);stop-opacity:1"/><stop offset="1" style="stop-color:rgb(73,208,160);stop-opacity:1"/></linearGradient>
        <linearGradient id="_Linear3" x1="0" y1="0" x2="1" y2="0" gradientUnits="userSpaceOnUse" gradientTransform="matrix(-114.324,748.504,902.557,137.854,3199.79,1794.49)"><stop offset="0" style="stop-color:rgb(141,231,146);stop-opacity:1"/><stop offset="1" style="stop-color:rgb(10,118,80);stop-opacity:1"/></linearGradient>
        <linearGradient id="_Linear4" x1="0" y1="0" x2="1" y2="-0.0314185" gradientUnits="userSpaceOnUse" gradientTransform="matrix(-101.08,741.474,797.998,136.559,3223.86,1801.52)"><stop offset="0" style="stop-color:rgb(222,246,228);stop-opacity:1"/><stop offset="1" style="stop-color:rgb(73,208,160);stop-opacity:1"/></linearGradient>
        <linearGradient id="_Linear5" x1="0" y1="0" x2="1" y2="0.0913056" gradientUnits="userSpaceOnUse" gradientTransform="matrix(-89.9514,323.162,739.05,50.6666,3237.01,2310.64)"><stop offset="0" style="stop-color:rgb(141,231,146);stop-opacity:1"/><stop offset="1" style="stop-color:rgb(10,118,80);stop-opacity:1"/></linearGradient>
        <linearGradient id="_Linear6" x1="0" y1="0" x2="1" y2="0.0913056" gradientUnits="userSpaceOnUse" gradientTransform="matrix(-89.9514,323.162,739.05,50.6666,864.293,2310.64)"><stop offset="0" style="stop-color:rgb(141,231,146);stop-opacity:1"/><stop offset="1" style="stop-color:rgb(10,118,80);stop-opacity:1"/></linearGradient>
    </defs>
</svg>
